<svg xmlns="http://www.w3.org/2000/svg" x="0px" y="0px" viewBox="0 0 864 864" enable-background="new 0 0 864 864"><style>.fs0,.ls0{fill:#231f20}</style><g><path class="ls0" d="M298.2,595.3c-4.5-8.8-7-18.6-7-28.7V370.2v-53v-9l5.6,4.5l32.8,26.5l32.8-26.5l7.8-6.3V319v53v191.5v30.2v45	V662v61.4l47,39.4v-61.4V618v-45v-30.2V409.9v-33.7V357v-78.6v-47h-19.7l-27.3,22l-30.9,25l-9.7,7.8l-9.7-7.8l-28.7-23.2l-29.5-23.8	h-17.5v38.8v8.2v76.8v53v158.4c0,16.7,3.8,33,11,47.7L298.2,595.3z"/><path class="ls0" d="M567.8,566.5c0,10.1-2.4,20-7,28.7c-3.8,7.3-8.9,13.8-15.4,19.2l-3.3,2.8l-35.2,29.5L488.7,662v-23.3v-45v-30.2	V498v-61.8v-45.3v-55.5v-57V268v-36.6h-47v15.9v31.1v3.3v45v5.7v23.7v14v7.4v72.1v7.3v20.3v17.4v48.1v30.2v45v83.5v61.4l47-39.4	l66.1-55.5l20.8-17.4c4.7-3.9,9-8.2,12.9-12.8c6.1-7.2,11.3-15,15.3-23.4c7.1-14.7,11-31,11-47.7v-13l-47-20.8V566.5z"/></g><g><path class="fs0" d="M244.2,164.3h370.5v47H244.2V164.3z"/><path class="fs0" d="M244.2,97.2h370.5v47H244.2V97.2z"/><path class="fs0" d="M176.7,566.5c0,52.5,23.1,101.9,63.3,135.7l189.5,159l189.5-159c40.2-33.7,63.3-83.2,63.3-135.7V29.7H176.7	V566.5z M221.7,74.7h415.5v491.9c0,39.1-17.2,76-47.2,101.2L429.5,802.5L268.9,667.7c-30-25.2-47.2-62-47.2-101.2V74.7z"/></g></svg>